# xmcd CD database file
#
# Track frame offsets:
#	150
#	20480
#	48547
#	68177
#	86445
#	119270
#	141127
#	165570
#	182367
#	204700
#	223785
#	244885
#	269242
#
# Disc length: 3893 seconds
#
# Revision: 0
# Processed by: cddbd v1.5PL3 Copyright (c) Steve Scherf et al.
# Submitted via: CDex 1.50
#
DISCID=c30f330d
DTITLE=JUDY ROBERTS - Circle of Friends
DYEAR=1900
DGENRE=Jazz
TTITLE0=Scrapple from the Apple
TTITLE1=Common Ground (Circle of Friends)
TTITLE2=I Didn't Know About You
TTITLE3=My Attorney Bernie
TTITLE4=Do Nothin' Til You HEar from Me
TTITLE5=Take Fice
TTITLE6=Born to be Blue
TTITLE7=How About you
TTITLE8=So Many Stars
TTITLE9=Comes Love
TTITLE10=Love Dance
TTITLE11=Centerpiece
TTITLE12=Twilight World
EXTD=
EXTT0=
EXTT1=
EXTT2=
EXTT3=
EXTT4=
EXTT5=
EXTT6=
EXTT7=
EXTT8=
EXTT9=
EXTT10=
EXTT11=
EXTT12=
PLAYORDER=
